<svg width="44" height="44" viewBox="0 0 44 44" fill="none" xmlns="http://www.w3.org/2000/svg">
<mask id="mask0_331_385" style="mask-type:luminance" maskUnits="userSpaceOnUse" x="0" y="0" width="44" height="44">
<path d="M0 0H44V44H0V0Z" fill="white"/>
</mask>
<g mask="url(#mask0_331_385)">
<path d="M43.3555 22C43.3555 33.7943 33.7943 43.3555 22 43.3555C10.2057 43.3555 0.644531 33.7943 0.644531 22C0.644531 10.2057 10.2057 0.644531 22 0.644531C33.7943 0.644531 43.3555 10.2057 43.3555 22Z" fill="#BB7C63"/>
<path d="M43.3554 22C43.3554 33.7941 33.794 43.3555 21.9999 43.3555C21.1896 43.3555 20.3903 43.3108 19.604 43.2223C30.2697 42.0312 38.5627 32.9837 38.5627 22C38.5627 11.0163 30.2697 1.96883 19.604 0.777733C20.3903 0.689217 21.1896 0.644531 21.9999 0.644531C33.794 0.644531 43.3554 10.2059 43.3554 22Z" fill="#AA6A50"/>
<path d="M7.65625 37.8214C11.447 41.2601 16.4787 43.3555 21.9999 43.3555C33.3198 43.3555 42.581 34.5475 43.3078 23.4113" stroke="black" stroke-width="1.28906" stroke-miterlimit="10" stroke-linecap="round" stroke-linejoin="round"/>
<path d="M43.3071 20.5761C42.5741 9.44582 33.3157 0.644441 22 0.644441C10.2057 0.644441 0.644531 10.2056 0.644531 21.9999C0.644531 27.2525 2.54203 32.0612 5.68735 35.7808" stroke="black" stroke-width="1.28906" stroke-miterlimit="10" stroke-linecap="round" stroke-linejoin="round"/>
<path d="M13.1341 16.2019L17.0283 13.9818C17.3845 13.7788 17.8345 13.8556 18.1032 14.1654L20.1942 16.5767C20.4513 16.8733 20.4749 17.3062 20.2515 17.6288L18.7472 19.8017C18.5868 20.0335 18.3227 20.1719 18.0407 20.1719H14.7417C14.4162 20.1719 14.1187 19.988 13.9731 19.6968L12.791 17.3328C12.5869 16.9246 12.7376 16.428 13.1341 16.2019Z" fill="#87523E"/>
<path d="M20.251 17.6294L18.7471 19.8019C18.5864 20.0339 18.3226 20.1724 18.0407 20.1724H16.0229C16.0573 20.1379 16.0882 20.1001 16.1166 20.0597L17.6205 17.8872C17.8439 17.5641 17.8207 17.1309 17.5638 16.8345L15.7307 14.7213L17.0284 13.9823C17.3842 13.7785 17.8345 13.856 18.1026 14.1652L20.1943 16.5767C20.4513 16.8731 20.4745 17.3063 20.251 17.6294Z" fill="#7C4B37"/>
<path d="M13.7137 15.8715L13.1341 16.2019C12.7376 16.428 12.5869 16.9246 12.791 17.3328L13.9731 19.6968C14.1186 19.9879 14.4162 20.1719 14.7417 20.1719H18.0407C18.3227 20.1719 18.5868 20.0335 18.7472 19.8016L20.2515 17.6288C20.4749 17.3061 20.4513 16.8732 20.1942 16.5767L18.1032 14.1654C17.8345 13.8556 17.3845 13.7787 17.0283 13.9818L16.1769 14.4672" stroke="black" stroke-width="1.28906" stroke-miterlimit="10" stroke-linecap="round" stroke-linejoin="round"/>
<path d="M7.47176 2.61626L10.4632 0.910832C10.7493 0.747723 11.1035 0.762504 11.375 0.948816L14.3855 3.01415C14.7781 3.28348 14.8769 3.8205 14.6059 4.21186L13.1798 6.27187C13.0193 6.50373 12.7553 6.64209 12.4732 6.64209H9.10732C8.78179 6.64209 8.48427 6.45818 8.33869 6.16703L7.12869 3.74711C6.92459 3.33891 7.07524 2.84236 7.47176 2.61626Z" fill="#87523E"/>
<path d="M14.6061 4.21255L13.1795 6.27256C13.0197 6.50364 12.755 6.64209 12.4731 6.64209H10.6504L11.9755 4.72818C12.2462 4.3363 12.1474 3.79919 11.7547 3.53029L9.08374 1.69716L10.463 0.910832C10.7492 0.748411 11.1033 0.76302 11.3748 0.94873L14.3852 3.01467C14.778 3.28357 14.8768 3.82068 14.6061 4.21255Z" fill="#7C4B37"/>
<path d="M7.47176 2.61626L10.4632 0.910832C10.7493 0.747722 11.1035 0.762504 11.375 0.948816L14.3855 3.01415C14.7781 3.28348 14.8769 3.8205 14.6059 4.21186L13.1798 6.27187C13.0193 6.50373 12.7553 6.64209 12.4732 6.64209H9.10732C8.78179 6.64209 8.48427 6.45818 8.33869 6.16703L7.12869 3.74711C6.92459 3.33891 7.07524 2.84236 7.47176 2.61626Z" stroke="black" stroke-width="1.28906" stroke-miterlimit="10" stroke-linecap="round" stroke-linejoin="round"/>
<path d="M33.7633 5.36199L38.8493 6.14059C39.4769 6.23666 39.7873 6.95708 39.4257 7.47923L37.8375 9.77334C37.677 10.0051 37.413 10.1436 37.1309 10.1436H34.2702C33.8628 10.1436 33.5114 9.85755 33.4287 9.45855L32.7918 6.38594C32.6702 5.79924 33.171 5.27133 33.7633 5.36199Z" fill="#87523E"/>
<path d="M39.4254 7.479L37.8373 9.77259C37.6766 10.0047 37.4127 10.1431 37.1309 10.1431H34.2701C34.2228 10.1431 34.1763 10.1396 34.1309 10.1319C34.398 10.0803 34.6379 9.92728 34.7951 9.69877L36.7296 6.90486C36.9659 6.56377 36.9668 6.15213 36.7984 5.82643L38.8488 6.1401C39.477 6.23635 39.7873 6.9565 39.4254 7.479Z" fill="#7C4B37"/>
<path d="M33.7633 5.36199L38.8493 6.14059C39.4769 6.23666 39.7873 6.95708 39.4257 7.47923L37.8375 9.77334C37.677 10.0051 37.413 10.1436 37.1309 10.1436H34.2702C33.8628 10.1436 33.5114 9.85755 33.4287 9.45855L32.7918 6.38594C32.6702 5.79924 33.171 5.27133 33.7633 5.36199Z" stroke="black" stroke-width="1.28906" stroke-miterlimit="10" stroke-linecap="round" stroke-linejoin="round"/>
<path d="M35.4889 22.6584L35.158 25.9256C35.1225 26.2764 34.8762 26.57 34.5369 26.6659L30.4257 27.8287C29.9776 27.9555 29.51 27.702 29.3714 27.2575L28.1732 23.4122C28.0702 23.0814 28.1758 22.721 28.4412 22.4983L31.2868 20.11C31.5756 19.8677 31.9886 19.8419 32.3053 20.0462L35.0999 21.8497C35.3712 22.0247 35.5215 22.3371 35.4889 22.6584Z" fill="#87523E"/>
<path d="M35.4887 22.6581L35.1578 25.9255C35.1226 26.2761 34.876 26.57 34.5365 26.6654L32.1079 27.3521C32.3408 27.2163 32.4998 26.9756 32.5273 26.6989L32.8582 23.4316C32.8909 23.1102 32.7405 22.7982 32.4689 22.6229L30.1082 21.0992L31.2864 20.1101C31.5751 19.8678 31.9886 19.8419 32.3047 20.0456L35.0994 21.8495C35.371 22.0248 35.5214 22.3367 35.4887 22.6581Z" fill="#7C4B37"/>
<path d="M35.4889 22.6584L35.158 25.9256C35.1225 26.2764 34.8762 26.57 34.5369 26.6659L30.4257 27.8287C29.9776 27.9555 29.51 27.702 29.3714 27.2575L28.1732 23.4122C28.0702 23.0814 28.1758 22.721 28.4412 22.4983L31.2868 20.11C31.5756 19.8677 31.9886 19.8419 32.3053 20.0462L35.0999 21.8497C35.3712 22.0247 35.5215 22.3371 35.4889 22.6584Z" stroke="black" stroke-width="1.28906" stroke-miterlimit="10" stroke-linecap="round" stroke-linejoin="round"/>
<path d="M10.8491 32.7471L8.2051 32.4794C7.8543 32.4438 7.56074 32.1975 7.46483 31.8582L6.52287 28.528C6.39611 28.0798 6.64946 27.6122 7.09418 27.4737L10.1995 26.5061C10.5303 26.403 10.8906 26.5086 11.1134 26.7741L13.0506 29.0823C13.2929 29.3711 13.3188 29.784 13.1145 30.1007L11.6578 32.3581C11.4828 32.6293 11.1704 32.7796 10.8491 32.7471Z" fill="#87523E"/>
<path d="M13.115 30.1006L11.6584 32.3583C11.4831 32.6299 11.1703 32.7803 10.8497 32.7475L9.0605 32.5662L10.4845 30.3585C10.6882 30.0422 10.6624 29.6288 10.42 29.3401L8.48901 27.0387L10.2 26.5059C10.5309 26.4028 10.891 26.5085 11.1135 26.774L13.0506 29.0823C13.2929 29.371 13.3187 29.7844 13.115 30.1006Z" fill="#7C4B37"/>
<path d="M10.8491 32.7471L8.2051 32.4794C7.8543 32.4438 7.56074 32.1975 7.46483 31.8582L6.52287 28.528C6.39611 28.0798 6.64946 27.6122 7.09418 27.4737L10.1995 26.5061C10.5303 26.403 10.8906 26.5086 11.1134 26.7741L13.0506 29.0823C13.2929 29.3711 13.3188 29.784 13.1145 30.1007L11.6578 32.3581C11.4828 32.6293 11.1704 32.7796 10.8491 32.7471Z" stroke="black" stroke-width="1.28906" stroke-miterlimit="10" stroke-linecap="round" stroke-linejoin="round"/>
<path d="M37.6862 36.8828L37.4185 39.5268C37.3829 39.8777 37.1366 40.1712 36.7973 40.2672L33.4672 41.2091C33.0189 41.3358 32.5513 41.0825 32.4128 40.6377L31.4452 37.5326C31.3421 37.2017 31.4478 36.8414 31.7132 36.6186L34.0214 34.6813C34.3102 34.439 34.7231 34.4131 35.0399 34.6176L37.2972 36.0742C37.5684 36.2493 37.7187 36.5616 37.6862 36.8828Z" fill="#87523E"/>
<path d="M37.6862 36.8824L37.4189 39.5268C37.3828 39.8774 37.1369 40.1705 36.7975 40.2667L34.7815 40.8364C34.9283 40.6989 35.0247 40.5099 35.0462 40.3003L35.3134 37.6559C35.3461 37.3346 35.1957 37.0225 34.924 36.8472L32.9543 35.5763L34.0217 34.6807C34.3105 34.4385 34.723 34.4127 35.0401 34.6172L37.2969 36.0738C37.5684 36.2491 37.7188 36.5611 37.6862 36.8824Z" fill="#7C4B37"/>
<path d="M37.6862 36.8828L37.4185 39.5268C37.3829 39.8777 37.1366 40.1712 36.7973 40.2672L33.4672 41.2091C33.0189 41.3358 32.5513 41.0825 32.4128 40.6377L31.4452 37.5326C31.3421 37.2017 31.4478 36.8414 31.7132 36.6186L34.0214 34.6813C34.3102 34.439 34.7231 34.4131 35.0399 34.6176L37.2972 36.0742C37.5684 36.2493 37.7187 36.5616 37.6862 36.8828Z" stroke="black" stroke-width="1.28906" stroke-miterlimit="10" stroke-linecap="round" stroke-linejoin="round"/>
<path d="M27.4338 32.6719H28.572" stroke="black" stroke-width="1.28906" stroke-miterlimit="10" stroke-linecap="round" stroke-linejoin="round"/>
<path d="M17.0679 28.734V29.8721" stroke="black" stroke-width="1.28906" stroke-miterlimit="10" stroke-linecap="round" stroke-linejoin="round"/>
<path d="M27.1584 13.6323H26.0203" stroke="black" stroke-width="1.28906" stroke-miterlimit="10" stroke-linecap="round" stroke-linejoin="round"/>
<path d="M7.9028 22.9238H6.76465" stroke="black" stroke-width="1.28906" stroke-miterlimit="10" stroke-linecap="round" stroke-linejoin="round"/>
<path d="M22.8964 6.31971L22.0916 7.12451" stroke="black" stroke-width="1.28906" stroke-miterlimit="10" stroke-linecap="round" stroke-linejoin="round"/>
<path d="M38.7544 25.5449H38.7663" stroke="black" stroke-width="1.28906" stroke-miterlimit="10" stroke-linecap="round" stroke-linejoin="round"/>
<path d="M21.9946 22.9238H22.0066" stroke="black" stroke-width="1.28906" stroke-miterlimit="10" stroke-linecap="round" stroke-linejoin="round"/>
<path d="M19.7856 36.3822L19.7976 36.3823" stroke="black" stroke-width="1.28906" stroke-miterlimit="10" stroke-linecap="round" stroke-linejoin="round"/>
<path d="M15.6633 7.12451H15.6753" stroke="black" stroke-width="1.28906" stroke-miterlimit="10" stroke-linecap="round" stroke-linejoin="round"/>
<path d="M30.4666 11.8627L30.4786 11.8628" stroke="black" stroke-width="1.28906" stroke-miterlimit="10" stroke-linecap="round" stroke-linejoin="round"/>
<path d="M21.6257 38.6748H21.6377" stroke="black" stroke-width="1.28906" stroke-miterlimit="10" stroke-linecap="round" stroke-linejoin="round"/>
<path d="M9.6355 13.6323H9.64745" stroke="black" stroke-width="1.28906" stroke-miterlimit="10" stroke-linecap="round" stroke-linejoin="round"/>
</g>
</svg>
